<svg xmlns="http://www.w3.org/2000/svg" viewBox="0 0 273.1 201.4">
  <path fill="#FFF" d="M88 64.9c0 .3-.2.5-.5.5h-22c-.3 0-.5-.2-.5-.5v-21c0-.3.2-.5.5-.5h22c.3 0 .5.2.5.5v21z"/>
  <path fill="none" stroke="#000" stroke-width="3" stroke-miterlimit="10" d="M87.5 65.4c0 .3-.2.5-.5.5H65c-.3 0-.5-.2-.5-.5v-21c0-.3.2-.5.5-.5h22c.3 0 .5.2.5.5v21zM70.5 43.4v20M75.5 43.4v22M81.5 43.4v23"/>
  <path fill="#FFF" d="M57 64.9c0 .3-.2.5-.5.5h-29c-.3 0-.5-.2-.5-.5v-13c0-.3.2-.5.5-.5h29c.3 0 .5.2.5.5v13z"/>
  <path fill="none" stroke="#000" stroke-width="3" stroke-miterlimit="10" d="M56.5 65.4c0 .3-.2.5-.5.5H27c-.3 0-.5-.2-.5-.5v-13c0-.3.2-.5.5-.5h29c.3 0 .5.2.5.5v13z"/>
  <path fill="#FFF" d="M94.1 43.4c-.3 0-.1.3-.1.6v16c0 .3-.6.4-.9.4h-74c-.3 0-.1.3-.1.6v108c0 .3-.2.4.1.4h213c.3 0 .9-.1.9-.4V87 60 44c0-.3-.6-.6-.9-.6h-138z"/>
  <path fill="none" stroke="#000" stroke-width="3" stroke-miterlimit="10" d="M94.1 43.9c-.3 0-.6-.2-.6.1v16c0 .3-.1.9-.4.9h-74c-.3 0-.6-.2-.6.1v108c0 .3.3.9.6.9h213c.3 0 .4-.6.4-.9V87 60 44c0-.3-.1-.1-.4-.1h-138z"/>
  <path fill="#E0E0E0" stroke="#000" stroke-width="3" stroke-miterlimit="10" d="M18.5 75.9h214v76h-214zM177.5 54.9h46v11h-46z"/>
  <circle fill="none" stroke="#000" stroke-width="3" stroke-miterlimit="10" cx="79.1" cy="88" r="6"/>
  <circle fill="none" stroke="#000" stroke-width="3" stroke-miterlimit="10" cx="98.1" cy="88" r="6"/>
  <circle fill="#FFF" stroke="#000" stroke-width="3" stroke-miterlimit="10" cx="146.2" cy="113.1" r="42.4"/>
  <circle fill="#FFF" stroke="#000" stroke-width="3" stroke-miterlimit="10" cx="146.2" cy="113.1" r="29.5"/>
  <circle fill="#E0E0E0" stroke="#000" stroke-width="3" stroke-miterlimit="10" cx="146.3" cy="113.2" r="22.4"/>
  <path fill="none" stroke="#000" stroke-width="3" stroke-miterlimit="10" d="M145.9 98.4c8.2 0 14.8 6.6 14.8 14.8"/>
</svg>
