<svg xmlns="http://www.w3.org/2000/svg" viewBox="0 0 236 259.3">
  <circle fill="#FDF8FC" stroke="#F4F4F4" stroke-width="4" stroke-miterlimit="10" cx="118.4" cy="138.9" r="115.4"/>
  <path fill="#FFF" stroke="#F4F4F4" stroke-width="4" stroke-miterlimit="10" d="M66.1 226.8c15.3 9.1 33.1 14.4 52.3 14.4 56.2 0 101.4-46.1 101.4-102.3S173.5 37.1 117.5 37.1v102l-51.4 87.7z"/>
  <path fill="#D7D2D6" stroke="#000" stroke-width="4" stroke-miterlimit="10" d="M58.4 238.4c17.6 10.7 38.3 16.8 60.4 16.8 63.9 0 115.1-52.2 115.1-116.1s-52.4-116-116.4-116v14c56 0 102.4 45.6 102.4 101.8s-45.2 102.3-101.4 102.3c-18 0-34.9-4.6-49.6-12.8-.9-.5-1.8-1-2.7-1.6"/>
  <path fill="none" stroke="#000" stroke-width="4" stroke-miterlimit="10" d="M50.7 236.1L82.3 184M46.7 258.2l31.6-52.1M109.5 21v61M117.5 0v61"/>
</svg>
