<svg xmlns="http://www.w3.org/2000/svg" viewBox="0 0 512 512">
  <path d="M222.892 388h51.49c4.42 0 8-3.582 8-8V264.093h26.752c4.1 0 7.538-3.1 7.958-7.18l4.51-43.772c.232-2.25-.5-4.497-2.02-6.178-1.516-1.682-3.674-2.64-5.938-2.64h-31.26v-17.73c0-3.663 1.158-3.937 2.927-3.937h27.683c4.418 0 8-3.582 8-8v-42.5c0-4.406-3.562-7.982-7.968-8L274.848 124c-26.752 0-41.03 11.77-48.295 21.643-10.146 13.787-11.66 29.94-11.66 38.343v20.334h-16.49c-4.418 0-8 3.582-8 8v43.772c0 4.418 3.582 8 8 8h16.49V380c0 4.418 3.58 8 8 8zm-16.49-139.907V220.32h16.49c4.417 0 8-3.58 8-8v-28.333c0-5.185.832-18.376 8.546-28.86 7.386-10.037 19.3-15.126 35.376-15.126l30.177.123v26.533h-19.68c-9.422 0-18.93 6.164-18.93 19.936v25.73c0 4.418 3.583 8 8 8h30.396l-2.862 27.772H274.38c-4.417 0-8 3.582-8 8V372h-35.49V256.093c0-4.418-3.582-8-8-8h-16.488z"/>
  <path d="M437.022 74.984C388.67 26.63 324.382 0 256 0 187.624 0 123.338 26.63 74.984 74.984S0 187.624 0 256c0 68.388 26.63 132.678 74.984 181.028C123.334 485.375 187.62 512 256 512c68.385 0 132.673-26.625 181.02-74.972C485.373 388.678 512 324.388 512 256c0-68.378-26.628-132.664-74.978-181.016zm-11.314 350.73C380.38 471.04 320.11 496 256 496c-64.106 0-124.374-24.96-169.703-70.286C40.965 380.386 16 320.114 16 256c0-64.102 24.965-124.37 70.297-169.702C131.63 40.965 191.897 16 256 16c64.108 0 124.378 24.965 169.708 70.297C471.038 131.627 496 191.897 496 256c0 64.115-24.963 124.387-70.292 169.714z"/>
  <path d="M430.038 114.97c-2.784-3.433-7.82-3.958-11.253-1.173-3.43 2.784-3.956 7.822-1.172 11.252C447.526 161.92 464 208.424 464 256c0 55.567-21.635 107.803-60.92 147.086C363.798 442.366 311.564 464 256 464c-51.26 0-100.505-18.807-138.663-52.956-3.292-2.946-8.35-2.666-11.296.626-2.945 3.292-2.665 8.35.627 11.296C147.763 459.746 200.797 480 256 480c59.837 0 116.09-23.297 158.394-65.6C456.7 372.093 480 315.84 480 256c0-51.234-17.744-101.32-49.962-141.03zM48 256c0-114.69 93.31-208 208-208 51.26 0 100.504 18.808 138.662 52.96 3.293 2.947 8.35 2.665 11.296-.626 2.947-3.292 2.667-8.35-.625-11.296C364.237 52.256 311.203 32 256 32c-59.83 0-116.08 23.3-158.39 65.61C55.3 139.92 32 196.17 32 256c0 51.24 17.744 101.328 49.963 141.038 1.58 1.95 3.89 2.96 6.217 2.96 1.77 0 3.553-.585 5.036-1.788 3.43-2.784 3.956-7.822 1.172-11.253C64.474 350.087 48 303.58 48 256z"/>
</svg>
