<svg xmlns="http://www.w3.org/2000/svg" viewBox="0 0 530 132.3" height="150px">
  <path d="M101.2 33.1V.5c1.6-.1 3.1-.3 4.5-.3 25.5 0 51-.8 76.5.3 17.2.7 34.5 3.1 51.5 6.1 21.3 3.8 42.4 3.5 63.5-.8 19-3.9 38.1-6 57.5-5.7 21.8.3 43.7.1 65.5.1h5.6V33c-13.4 3-16.7 6.7-17.9 20.4-.8 8.8-.4 17.7-1.9 26.4-4.8 29-30.3 49.2-60.2 48.4-28-.7-52.4-22.9-56-51.1-.5-3.6-1.2-6.7-4-9.7-2.3-2.5-3.2-6.9-3.6-10.5-1.1-12.6-8.6-21.5-18.7-21.5-10.2 0-18 8.9-18.7 21.4-.3 5-1.6 9.3-5.4 13-1.5 1.4-1.8 4.4-2.2 6.7-3.4 24.8-20.5 44.1-44.7 50.1-35.7 8.9-71.3-17.8-72.7-54.6-.2-6.3-.3-12.7-.9-19-1-13.4-4.6-17.3-17.7-19.9zm301.4 36.4c0-33.3-26.7-56.4-56.8-55.1-29.5 1.2-53.6 26.6-51.9 58.6 1.6 28.5 26.6 51.5 56.3 50.6 29-.9 53.4-26.1 52.4-54.1zm-277.7-.7c-.6 28.9 23.1 54 51.7 54.6 30.5.7 55.7-22.6 56.4-52.1.8-31-23-56.5-53.4-56.7-35.1-.2-55.9 29.3-54.7 54.2z"/>
  <path fill="none" stroke="#000" stroke-width="5" stroke-miterlimit="10" d="M0 11.3h483.5m-437 10.5H530"/>
  <path fill="#FAD663" d="M402.6 69.5c1 28-23.4 53.2-52.4 54.1-29.7.9-54.7-22.1-56.3-50.6-1.8-32.1 22.4-57.4 51.9-58.6 30-1.3 56.8 21.8 56.8 55.1zm-277.7-.7c-1.2-24.9 19.7-54.4 54.7-54.2 30.4.2 54.2 25.7 53.4 56.7-.7 29.5-25.9 52.8-56.4 52.1-28.7-.7-52.4-25.7-51.7-54.6z"/>
  <path fill="none" stroke="#000" stroke-width="5" stroke-miterlimit="10" d="M346 32.5c1.4-.2 2.9-.3 4.4-.3 18.2 0 33 14.8 33 33 0 1.3-.1 2.5-.2 3.8M177 32.5c1.4-.2 2.9-.3 4.4-.3 18.2 0 33 14.8 33 33 0 1.3-.1 2.5-.2 3.8"/>
</svg>
