<svg xmlns="http://www.w3.org/2000/svg" viewBox="0 0 512 512">
  <path d="M437.022 74.984C388.67 26.63 324.382 0 256 0 187.624 0 123.338 26.63 74.984 74.984S0 187.624 0 256c0 68.388 26.63 132.678 74.984 181.028C123.334 485.375 187.62 512 256 512c68.385 0 132.673-26.625 181.02-74.972C485.373 388.678 512 324.388 512 256c0-68.377-26.628-132.664-74.978-181.016zm-11.314 350.73C380.38 471.04 320.11 496 256 496c-64.106 0-124.374-24.96-169.703-70.286C40.965 380.386 16 320.114 16 256c0-64.102 24.965-124.37 70.297-169.703C131.63 40.965 191.897 16 256 16c64.108 0 124.378 24.965 169.708 70.297C471.038 131.627 496 191.897 496 256c0 64.115-24.963 124.387-70.292 169.714z"/>
  <path d="M430.038 114.97c-2.784-3.433-7.82-3.957-11.253-1.173-3.43 2.784-3.956 7.822-1.172 11.252C447.526 161.92 464 208.425 464 256c0 55.567-21.635 107.803-60.92 147.085C363.798 442.367 311.564 464 256 464c-51.26 0-100.505-18.807-138.663-52.956-3.292-2.946-8.35-2.666-11.296.626s-2.665 8.35.627 11.296C147.763 459.746 200.797 480 256 480c59.837 0 116.09-23.297 158.394-65.6C456.7 372.094 480 315.84 480 256c0-51.233-17.744-101.32-49.962-141.03zM48 256c0-114.69 93.31-208 208-208 51.26 0 100.504 18.808 138.662 52.96 3.293 2.947 8.35 2.665 11.296-.626 2.947-3.292 2.667-8.35-.625-11.296C364.237 52.256 311.203 32 256 32c-59.83 0-116.08 23.3-158.39 65.61C55.3 139.92 32 196.17 32 256c0 51.24 17.744 101.328 49.963 141.038 1.58 1.95 3.89 2.96 6.217 2.96 1.77 0 3.553-.585 5.036-1.788 3.43-2.784 3.956-7.822 1.172-11.253C64.474 350.087 48 303.58 48 256z"/>
  <path d="M190.165 301.683c-9.963 7.207-15.45 17.038-15.45 27.68s5.487 20.475 15.45 27.682c9.182 6.64 21.255 10.3 33.996 10.3s24.815-3.66 33.997-10.3c9.963-7.207 15.45-17.038 15.45-27.68s-5.486-20.475-15.45-27.682c-9.182-6.64-21.255-10.3-33.996-10.3s-24.814 3.66-33.995 10.3zm67.44 27.68c0 11.916-15.315 21.98-33.445 21.98-18.13 0-33.446-10.064-33.446-21.98s15.316-21.98 33.446-21.98c18.13 0 33.446 10.067 33.446 21.98z"/>
  <path d="M319.42 139.74c-1.217-3.032-4.156-5.018-7.422-5.018H227.7c-19.62 0-39.336 7.288-54.092 19.995-15.092 12.996-23.748 30.545-23.748 48.147 0 34.097 21.703 59.868 53.707 65.13.022.51.056 1.02.1 1.525-17.9 2.343-34.27 9.665-46.85 21.09-14.078 12.786-22.15 29.58-22.15 46.077 0 32.792 36.718 56.592 87.31 56.592 42.854 0 87.182-24.68 87.182-65.98 0-26.437-7.827-40.8-32.234-59.13l-1.465-1.09c-6.518-4.844-9.81-7.737-11.437-9.338.908-.99 2.825-2.794 6.866-5.953 16.837-13.147 25.738-29.734 25.738-47.973 0-10.578-2.203-20.52-6.417-29.13l27.326-26.19c2.356-2.26 3.103-5.727 1.885-8.758zm-44.758 27.685c-2.77 2.655-3.265 6.903-1.18 10.124 4.673 7.216 7.143 16.3 7.143 26.267 0 13.13-6.772 25.357-19.588 35.362-11.025 8.616-13.72 12.594-13.736 20.27 0 .957.168 1.906.5 2.802 1.298 3.492 4.875 7.833 18.11 17.664l1.43 1.066c20.51 15.4 25.817 24.924 25.817 46.318 0 17.89-11.656 29.42-21.435 35.942-13.373 8.92-31.506 14.035-49.75 14.035-20.77 0-39.49-4.46-52.707-12.56-8.486-5.198-18.6-14.282-18.6-28.032 0-29.984 32.695-51.07 63.232-51.95 2.668-.077 5.122-1.48 6.542-3.74s1.62-5.078.532-7.516c-.97-2.172-1.44-4.472-1.44-7.032 0-1.35.13-2.742.384-4.134.413-2.26-.166-4.59-1.588-6.393s-3.553-2.908-5.847-3.033c-27.884-1.516-46.62-21.62-46.62-50.025 0-12.94 6.63-26.07 18.188-36.023 11.896-10.245 27.806-16.12 43.65-16.12h64.39l-17.426 16.705z"/>
  <path d="M203.42 163.9c-8.113 4.1-13.622 12.48-15.11 22.99-1.362 9.602.62 20.294 5.577 30.105 8.384 16.592 22.903 26.61 36.553 26.61 4.09 0 8.104-.9 11.85-2.792 16.244-8.21 20.432-31.532 9.535-53.097-4.958-9.81-12.39-17.748-20.93-22.348-9.346-5.035-19.36-5.57-27.474-1.47zm19.886 15.554c5.603 3.018 10.793 8.66 14.238 15.478 6.508 12.88 5.354 27.646-2.47 31.6-7.826 3.955-20.4-3.874-26.908-16.754-3.446-6.818-4.91-14.343-4.017-20.644.437-3.088 1.862-8.618 6.487-10.955 1.48-.75 3.03-1.04 4.543-1.04 3.213 0 6.26 1.308 8.126 2.314zM359.998 246.722c4.418 0 8-3.582 8-8v-32h32c4.418 0 8-3.582 8-8s-3.582-8-8-8h-32v-32c0-4.418-3.582-8-8-8s-8 3.582-8 8v32h-32c-4.418 0-8 3.582-8 8s3.582 8 8 8h32v32c0 4.418 3.58 8 8 8z"/>
</svg>
