<svg xmlns="http://www.w3.org/2000/svg" viewBox="0 0 204 201.4">
  <path fill="#FFF" stroke="#000" stroke-width="2" stroke-miterlimit="10" d="M42.9 101.4v59M169.9 101.4v59"/>
  <path fill="#E0E0E0" d="M161.9 173.4c0 1.7-1.3 3-3 3h-14c-1.7 0-3-1.3-3-3v-40c0-1.7 1.3-3 3-3h14c1.7 0 3 1.3 3 3v40z"/>
  <path fill="none" stroke="#000" stroke-width="3" stroke-miterlimit="10" d="M162.4 172.9c0 1.6-1.4 3-3 3h-14c-1.6 0-3-1.3-3-3v-40c0-1.6 1.3-3 3-3h14c1.6 0 3 1.4 3 3v40z"/>
  <path fill="#E0E0E0" d="M69.9 173.4c0 1.7-1.3 3-3 3h-14c-1.7 0-3-1.3-3-3v-40c0-1.7 1.3-3 3-3h14c1.7 0 3 1.3 3 3v40z"/>
  <path fill="none" stroke="#000" stroke-width="3" stroke-miterlimit="10" d="M70.4 172.9c0 1.6-1.3 3-3 3h-14c-1.7 0-3-1.3-3-3v-40c0-1.6 1.3-3 3-3h14c1.7 0 3 1.4 3 3v40z"/>
  <path fill="#E0E0E0" d="M170.9 124.9c0 .3-.2.5-.5.5h-7c-.3 0-.5-.2-.5-.5v-15c0-.3.2-.5.5-.5h7c.3 0 .5.2.5.5v15z"/>
  <path fill="none" stroke="#000" stroke-width="2" stroke-miterlimit="10" d="M170.9 124.9c0 .3-.2.5-.5.5h-7c-.3 0-.5-.2-.5-.5v-15c0-.3.2-.5.5-.5h7c.3 0 .5.2.5.5v15z"/>
  <path fill="#E0E0E0" d="M49.9 124.9c0 .3-.2.5-.5.5h-7c-.3 0-.5-.2-.5-.5v-15c0-.3.2-.5.5-.5h7c.3 0 .5.2.5.5v15z"/>
  <path fill="none" stroke="#000" stroke-width="2" stroke-miterlimit="10" d="M49.9 124.9c0 .3-.2.5-.5.5h-7c-.3 0-.5-.2-.5-.5v-15c0-.3.2-.5.5-.5h7c.3 0 .5.2.5.5v15z"/>
  <path fill="none" stroke="#000" stroke-width="2.5" stroke-miterlimit="10" d="M45.9 109.4s.3-27.9 18.5-44.2M166.4 109.4s-.3-27.9-18.5-44.2"/>
  <path fill="#E0E0E0" stroke="#000" stroke-width="3" stroke-miterlimit="10" d="M61.4 71.4s15.3-18.3 43.2-18.7c27.8-.3 43.8 18.7 43.8 18.7v-8s-17.3-19-43.8-19.5-43.2 19.5-43.2 19.5v8z"/>
  <g>
    <path fill="#FFF" d="M49.7 141.6c.3-.1.2 0 .2.3v22c0 .3 0 .4-.2.3l-8.2-3.6c-.3-.1-.6-.4-.6-.7v-14c0-.3.3-.6.6-.7l8.2-3.6z"/>
    <path fill="none" stroke="#000" stroke-width="2" stroke-miterlimit="10" d="M49.7 141.6c.3-.1.2 0 .2.3v22c0 .3 0 .4-.2.3l-8.2-3.6c-.3-.1-.6-.4-.6-.7v-14c0-.3.3-.6.6-.7l8.2-3.6z"/>
  </g>
  <g>
    <path fill="#FFF" d="M163.6 141.6c-.3-.1-.7 0-.7.3v22c0 .3.5.4.7.3l8-3.6c.3-.1.3-.4.3-.7v-14c0-.3-.1-.6-.3-.7l-8-3.6z"/>
    <path fill="none" stroke="#000" stroke-width="2" stroke-miterlimit="10" d="M163.6 141.6c-.3-.1-.7 0-.7.3v22c0 .3.5.4.7.3l8-3.6c.3-.1.3-.4.3-.7v-14c0-.3-.1-.6-.3-.7l-8-3.6z"/>
  </g>
</svg>
