<svg xmlns="http://www.w3.org/2000/svg" viewBox="0 0 512 512">
  <path d="M437.022 74.984C388.67 26.63 324.382 0 256 0 187.624 0 123.338 26.63 74.984 74.984S0 187.624 0 256c0 68.388 26.63 132.678 74.984 181.028C123.334 485.375 187.62 512 256 512c68.385 0 132.673-26.625 181.02-74.972C485.373 388.678 512 324.388 512 256c0-68.377-26.628-132.664-74.978-181.016zm-11.314 350.73C380.38 471.04 320.11 496 256 496c-64.106 0-124.374-24.96-169.703-70.286C40.965 380.386 16 320.114 16 256c0-64.102 24.965-124.37 70.297-169.703C131.63 40.965 191.897 16 256 16c64.108 0 124.378 24.965 169.708 70.297C471.038 131.627 496 191.897 496 256c0 64.115-24.963 124.387-70.292 169.714z"/>
  <path d="M430.038 114.97c-2.783-3.433-7.82-3.957-11.253-1.173-3.43 2.784-3.956 7.822-1.172 11.252C447.526 161.92 464 208.425 464 256c0 55.567-21.635 107.803-60.92 147.085C363.798 442.367 311.564 464 256 464c-51.26 0-100.505-18.807-138.663-52.956-3.292-2.946-8.35-2.666-11.296.626-2.945 3.292-2.665 8.35.627 11.296C147.763 459.746 200.797 480 256 480c59.837 0 116.09-23.297 158.394-65.6C456.7 372.094 480 315.84 480 256c0-51.233-17.744-101.32-49.962-141.03zM48 256c0-114.69 93.31-208 208-208 51.26 0 100.504 18.808 138.662 52.96 3.293 2.947 8.35 2.665 11.296-.626 2.947-3.292 2.667-8.35-.625-11.296C364.237 52.256 311.203 32 256 32c-59.83 0-116.08 23.3-158.39 65.61C55.3 139.92 32 196.17 32 256c0 51.24 17.744 101.328 49.963 141.038 1.58 1.95 3.89 2.96 6.217 2.96 1.77 0 3.553-.585 5.036-1.788 3.43-2.784 3.956-7.822 1.172-11.253C64.474 350.087 48 303.58 48 256z"/>
  <path d="M325.685 373.042h49.577c4.418 0 8-3.582 8-8v-85.508c0-24.007-6.204-42.903-18.44-56.162-11.437-12.395-27.57-18.947-46.652-18.947-16.595 0-28.25 5.056-36.677 11.636v-.137c0-4.418-3.582-8-8-8H223.93c-2.185 0-4.274.894-5.784 2.473-1.51 1.58-2.307 3.708-2.208 5.89.62 13.62-.002 147.37-.008 148.72-.01 2.127.83 4.172 2.33 5.68s3.542 2.356 5.67 2.356h49.562c4.418 0 8-3.582 8-8V281.76c0-4.336.347-7.376 1.053-9.092 1.594-3.953 6.54-13.146 18.02-13.146 4.683 0 17.12 0 17.12 25.734v79.785c0 4.42 3.58 8.002 8 8.002zm-25.12-129.52c-14.728 0-27.01 8.66-32.836 23.106-1.548 3.754-2.238 8.42-2.238 15.13v75.283h-33.526c.11-25.854.418-105.46.123-133.118h33.402v13.117c0 3.543 2.332 6.665 5.73 7.67 3.4 1.005 7.055-.347 8.983-3.32 6.72-10.367 16.487-20.966 37.964-20.966 31.198 0 49.092 21.544 49.092 59.108v77.508h-33.577v-71.785c0-12.136-2.428-21.855-7.216-28.887-5.724-8.404-14.682-12.846-25.906-12.846zM207.747 169.605c-.41-19.786-15.1-33.605-35.72-33.605C151.15 136 136 150.203 136 169.77s14.877 33.772 35.375 33.772h.333c20.883 0 36.04-14.203 36.04-33.77v-.167zm-36.04 17.937h-.332c-11.59 0-19.375-7.142-19.375-17.77 0-10.63 8.048-17.772 20.026-17.772 11.906 0 19.456 6.838 19.722 17.853-.04 10.584-8.084 17.69-20.04 17.69zM146.92 207.922c-4.42 0-8 3.582-8 8v149.12c0 4.417 3.58 8 8 8h49.59c4.418 0 8-3.583 8-8V215.92c0-4.418-3.582-8-8-8h-49.59zm41.59 149.12h-33.59v-133.12h33.59v133.12z"/>
</svg>
