<svg xmlns="http://www.w3.org/2000/svg" viewBox="0 0 512 512">
  <path d="M437.022 74.984C388.67 26.63 324.382 0 256 0 187.624 0 123.338 26.63 74.984 74.984S0 187.624 0 256c0 68.388 26.63 132.678 74.984 181.028C123.334 485.375 187.62 512 256 512c68.385 0 132.673-26.625 181.02-74.972C485.373 388.678 512 324.388 512 256c0-68.377-26.628-132.664-74.978-181.016zm-11.314 350.73C380.38 471.04 320.11 496 256 496c-64.106 0-124.374-24.96-169.703-70.286C40.965 380.386 16 320.114 16 256c0-64.102 24.965-124.37 70.297-169.703C131.63 40.965 191.897 16 256 16c64.108 0 124.378 24.965 169.708 70.297C471.038 131.627 496 191.897 496 256c0 64.115-24.963 124.387-70.292 169.714z"/>
  <path d="M430.038 114.97c-2.783-3.433-7.82-3.958-11.253-1.173-3.43 2.784-3.956 7.822-1.172 11.252C447.526 161.92 464 208.425 464 256c0 55.567-21.635 107.803-60.92 147.085C363.798 442.367 311.564 464 256 464c-51.26 0-100.505-18.807-138.663-52.956-3.292-2.946-8.35-2.666-11.296.626-2.945 3.292-2.665 8.35.627 11.296C147.763 459.746 200.797 480 256 480c59.837 0 116.09-23.297 158.394-65.6C456.7 372.094 480 315.84 480 256c0-51.233-17.744-101.32-49.962-141.03zM48 256c0-114.69 93.31-208 208-208 51.26 0 100.504 18.808 138.662 52.96 3.293 2.947 8.35 2.665 11.296-.626 2.947-3.292 2.667-8.35-.625-11.296C364.237 52.256 311.203 32 256 32c-59.83 0-116.08 23.3-158.39 65.61C55.3 139.92 32 196.17 32 256c0 51.24 17.744 101.328 49.963 141.038 1.58 1.95 3.89 2.96 6.217 2.96 1.77 0 3.553-.585 5.036-1.788 3.43-2.784 3.956-7.822 1.172-11.253C64.474 350.087 48 303.58 48 256z"/>
  <path d="M188.65 390.892l.077.527c.544 3.96 3.382 7.185 7.252 8.23.886.238 1.784.354 2.67.354 3.096 0 6.06-1.415 8.003-3.943l.29-.37c6.66-8.485 22.81-30.625 28.956-52.897 1.102-4.02 4.532-17.47 7.253-28.195 9.037 6.702 21.31 10.905 33.576 10.905 26.297 0 49.936-11.82 66.56-33.282 15.935-20.57 24.71-49.143 24.71-80.453 0-24.85-10.646-49.326-29.21-67.154-19.655-18.875-46.817-29.27-76.485-29.27-45.115 0-72.94 18.564-88.34 34.138-19.042 19.26-29.964 44.865-29.964 70.246 0 32.235 13.677 57.05 36.57 66.375 3.942 1.614 8.027 1.54 11.506-.207 3.46-1.738 5.946-4.96 6.98-8.995.355-1.33.938-3.648 1.533-6.013.61-2.435 1.236-4.92 1.626-6.375 1.916-7.225.127-11.138-3.85-15.84-5.658-6.666-8.293-14.63-8.293-25.066 0-17.535 6.462-33.882 18.196-46.03 12.576-13.02 29.792-19.903 49.786-19.903 34.672 0 56.21 19.597 56.21 51.14 0 41.53-17.978 74.062-40.93 74.062-5.677 0-10.74-2.285-13.89-6.27-2.926-3.7-3.876-8.533-2.674-13.606 1.613-6.802 3.818-13.96 5.952-20.882 4.045-13.125 7.865-25.523 7.865-35.738 0-18.625-11.57-31.14-28.79-31.14-21.18 0-37.77 21.055-37.77 47.932 0 11.66 2.845 20.738 4.548 25.126-3.037 12.86-16.625 70.407-19.26 81.52-5.214 22.03-2.657 47.723-.67 61.078zm16.24-57.386c2.97-12.528 19.865-84.084 19.865-84.084.424-1.797.193-3.727-.616-5.386-.042-.084-4.108-8.565-4.108-20.867 0-17.906 9.563-31.932 21.772-31.932 11.126 0 12.788 9.485 12.788 15.14 0 7.804-3.476 19.083-7.156 31.024-2.21 7.17-4.495 14.586-6.23 21.905-2.353 9.935-.332 19.602 5.693 27.22 6.203 7.847 15.84 12.346 26.44 12.346 16.827 0 31.873-10.073 42.366-28.363 9.392-16.37 14.563-38.282 14.563-61.698 0-19.332-6.568-35.927-18.993-47.992-12.9-12.527-31.303-19.148-53.22-19.148-24.086 0-45.854 8.803-61.294 24.788-14.63 15.146-22.688 35.44-22.688 57.146 0 14.246 3.956 25.832 12.084 35.408.325.386.557.675.72.888-.032.135-.072.296-.122.486-.4 1.486-1.05 4.07-1.685 6.6-.283 1.127-.564 2.244-.817 3.24-15.454-7.632-24.255-25.853-24.255-50.5 0-21.204 9.238-42.708 25.344-58.997 13.255-13.406 37.368-29.387 76.96-29.387 25.516 0 48.743 8.812 65.403 24.81C343.147 170.98 352 191.25 352 211.768c0 27.782-7.585 52.875-21.36 70.657-13.72 17.715-32.363 27.08-53.91 27.08-14.074 0-26.848-7.754-30.612-14.938-1.54-2.938-4.726-4.62-8.026-4.232-3.294.39-6.006 2.772-6.817 5.988-.09.354-8.968 35.544-10.802 42.227-3.543 12.84-11.138 25.945-17.637 35.595-1.21-15.454-.52-29.77 2.053-40.64z"/>
</svg>
