<svg xmlns="http://www.w3.org/2000/svg" viewBox="0 0 512 512">
  <path d="M437.022 74.984C388.67 26.63 324.382 0 256 0 187.624 0 123.338 26.63 74.984 74.984S0 187.624 0 256c0 68.388 26.63 132.678 74.984 181.028C123.334 485.375 187.62 512 256 512c68.385 0 132.673-26.625 181.02-74.972C485.373 388.678 512 324.388 512 256c0-68.377-26.628-132.664-74.978-181.016zm-11.314 350.73C380.38 471.04 320.11 496 256 496c-64.106 0-124.374-24.96-169.703-70.286C40.965 380.386 16 320.114 16 256c0-64.102 24.965-124.37 70.297-169.703C131.63 40.965 191.897 16 256 16c64.108 0 124.378 24.965 169.708 70.297C471.038 131.627 496 191.897 496 256c0 64.115-24.963 124.387-70.292 169.714z"/>
  <path d="M430.038 114.97c-2.783-3.433-7.82-3.957-11.253-1.173-3.43 2.784-3.956 7.822-1.172 11.252C447.526 161.92 464 208.425 464 256c0 55.567-21.635 107.803-60.92 147.085C363.798 442.367 311.564 464 256 464c-51.26 0-100.505-18.807-138.663-52.956-3.292-2.946-8.35-2.666-11.296.626s-2.665 8.35.627 11.296C147.763 459.746 200.797 480 256 480c59.837 0 116.09-23.297 158.394-65.6C456.7 372.094 480 315.84 480 256c0-51.233-17.744-101.32-49.962-141.03zM48 256c0-114.69 93.31-208 208-208 51.26 0 100.504 18.808 138.662 52.96 3.293 2.947 8.35 2.665 11.296-.626 2.947-3.292 2.667-8.35-.625-11.296C364.237 52.256 311.203 32 256 32c-59.83 0-116.08 23.3-158.39 65.61C55.3 139.92 32 196.17 32 256c0 51.24 17.744 101.328 49.963 141.038 1.58 1.95 3.89 2.96 6.217 2.96 1.77 0 3.553-.585 5.036-1.788 3.43-2.784 3.956-7.822 1.172-11.253C64.474 350.087 48 303.58 48 256z"/>
  <path d="M398.655 194.764c1.975-2.96 1.757-6.867-.533-9.59-2.29-2.722-6.102-3.604-9.357-2.167-.204.09-.408.18-.612.268 1.88-3.375 3.437-6.95 4.63-10.676 1.014-3.167-.035-6.63-2.635-8.7-2.6-2.07-6.21-2.316-9.067-.62-8.07 4.79-16.707 8.313-25.725 10.497-10.798-9.778-25.002-15.307-39.646-15.307-32.47 0-58.888 26.402-58.888 58.855 0 .928.02 1.854.063 2.776-34.86-4.248-67.035-21.912-89.417-49.383-1.658-2.035-4.206-3.128-6.826-2.922-2.617.205-4.967 1.68-6.288 3.948-5.214 8.95-7.97 19.185-7.97 29.602 0 9.952 2.486 19.542 7.052 28.008-1.225.08-2.435.444-3.528 1.088-2.443 1.44-3.942 4.06-3.942 6.896v.636c0 17.624 7.908 33.796 20.616 44.72-.275.236-.536.494-.78.77-1.86 2.113-2.473 5.046-1.615 7.726 5.467 17.082 18.25 30.333 34.264 36.714-13 6.537-27.354 9.933-42.314 9.933-3.772 0-7.544-.216-11.21-.643-3.7-.43-7.207 1.748-8.46 5.255-1.252 3.507.08 7.414 3.215 9.425C164.29 367.657 192.756 376 221.997 376c57.454 0 93.424-27.125 113.482-49.88 24.968-28.326 39.288-65.827 39.288-102.89 0-.914-.007-1.804-.022-2.676 9.302-7.272 17.333-15.93 23.91-25.79zM361.93 210.17c-2.197 1.585-3.443 4.176-3.31 6.883.097 1.97.145 3.99.145 6.177 0 33.22-12.863 66.866-35.29 92.31C305.597 335.822 273.48 360 221.995 360c-15.75 0-31.25-2.705-45.895-7.938 17.51-3.16 33.89-10.506 48.153-21.695 2.662-2.088 3.723-5.626 2.648-8.835-1.074-3.208-4.05-5.394-7.435-5.458-14.083-.265-26.83-7.364-34.527-18.535 4.015-.245 8.006-.897 11.91-1.952 3.583-.967 6.03-4.272 5.91-7.98-.12-3.71-2.774-6.85-6.41-7.585-15.938-3.22-28.378-15.183-32.717-30.254 4.28 1.13 8.69 1.783 13.12 1.93 3.577.123 6.79-2.145 7.883-5.547 1.094-3.402-.203-7.118-3.175-9.102-11.942-7.97-19.07-21.317-19.07-35.706 0-3.646.46-7.26 1.362-10.75 26.808 27.68 63.308 44.386 101.994 46.314 2.526.125 4.93-.936 6.54-2.863 1.61-1.928 2.22-4.5 1.65-6.946-.736-3.15-1.11-6.44-1.11-9.776 0-23.63 19.24-42.855 42.888-42.855 11.804 0 23.217 4.93 31.314 13.526 1.884 2 4.664 2.894 7.358 2.367 3.03-.593 6.028-1.312 8.986-2.156-1.483 1.18-3.052 2.266-4.696 3.25-3.236 1.938-4.68 5.872-3.463 9.442 1.217 3.57 4.758 5.808 8.507 5.366 1.303-.153 2.602-.33 3.897-.53-1.834 1.546-3.73 3.024-5.683 4.434z"/>
</svg>
